# xmcd
# 
# Track frame offsets:
#     150
#     43838
#     62136
#     102911
#     122048
#     135704
#     176988
# 
# Disc length: 2778
# 
# Revision: 2
# Processed by: cddbd v1.5.2PL0 Copyright (c) Steve Scherf et al.
# Submitted via: fre:ac v1.0.27
# 
DISCID=670ad807
DTITLE=Arild Andersen - Green In Blue - Early Quartets - Green Shading Into Blue
DYEAR=2010
DGENRE=Jazz
TTITLE0=Sole
TTITLE1=The Guitarist
TTITLE2=Anima
TTITLE3=Radka's Samba
TTITLE4=Terhi
TTITLE5=Green Shading Into Blue
TTITLE6=Jana
EXTD=
EXTT0=
EXTT1=
EXTT2=
EXTT3=
EXTT4=
EXTT5=
EXTT6=
PLAYORDER=
